HIERARCHY
ROOT hip
{
  OFFSET 0.00112043 5.09927 -9.65472
  CHANNELS 6 Xposition Yposition Zposition Zrotation Xrotation Yrotation
  JOINT abdomen
  {
    OFFSET 0 -1.186 -1.5018
    CHANNELS 3 Zrotation Xrotation Yrotation
    JOINT abdomen2
    {
      OFFSET 0 9.964 0.2134
      CHANNELS 3 Zrotation Xrotation Yrotation
      JOINT chest
      {
        OFFSET 0 13.134 -3.2573
        CHANNELS 3 Zrotation Xrotation Yrotation
        JOINT neck
        {
          OFFSET 0 20.686 -1.6905
          CHANNELS 3 Zrotation Xrotation Yrotation
          JOINT head
          {
            OFFSET 0 7.238 -0.1237
            CHANNELS 3 Zrotation Xrotation Yrotation
            End Site
            {
              OFFSET 0 0 0
            }
          }
        }
        JOINT lCollar
        {
          OFFSET 1.7069 20.075 5.0056
          CHANNELS 3 Zrotation Xrotation Yrotation
          JOINT lShldr
          {
            OFFSET 13.6458 -0.047 -4.849
            CHANNELS 3 Zrotation Xrotation Yrotation
            JOINT lForeArm
            {
              OFFSET 28.3255 -0.9759 2.2888
              CHANNELS 3 Zrotation Xrotation Yrotation
              JOINT lHand
              {
                OFFSET 22.1583 -0.53 10.8316
                CHANNELS 3 Zrotation Xrotation Yrotation
                JOINT lThumb1
                {
                  OFFSET 0.786 0.112 2.5817
                  CHANNELS 3 Zrotation Xrotation Yrotation
                  JOINT lThumb2
                  {
                    OFFSET 0.3601 -0.878 4.2331
                    CHANNELS 3 Zrotation Xrotation Yrotation
                    JOINT lThumb2_End
                    {
                      OFFSET 1.8127 -1.216 2.2227
                      CHANNELS 3 Zrotation Xrotation Yrotation
                      End Site
                      {
                        OFFSET 0.0181 -0.0122 0.0222
                      }
                    }
                  }
                }
                JOINT lCarpal1
                {
                  OFFSET 0.9571 1.114 1.7695
                  CHANNELS 3 Zrotation Xrotation Yrotation
                  JOINT lIndex1
                  {
                    OFFSET 4.1246 0.487 4.1451
                    CHANNELS 3 Zrotation Xrotation Yrotation
                    JOINT lIndex2
                    {
                      OFFSET 3.4052 -1.454 2.7682
                      CHANNELS 3 Zrotation Xrotation Yrotation
                      JOINT lIndex2_End
                      {
                        OFFSET 1.4531 -1.795 1.2713
                        CHANNELS 3 Zrotation Xrotation Yrotation
                        End Site
                        {
                          OFFSET 0.0145 -0.0179 0.0127
                        }
                      }
                    }
                  }
                  JOINT lMid1
                  {
                    OFFSET 5.6954 0.21 2.1184
                    CHANNELS 3 Zrotation Xrotation Yrotation
                    JOINT lMid2
                    {
                      OFFSET 3.9766 -1.54 2.3863
                      CHANNELS 3 Zrotation Xrotation Yrotation
                      JOINT lMid2_End
                      {
                        OFFSET 1.4042 -1.926 1.125
                        CHANNELS 3 Zrotation Xrotation Yrotation
                        End Site
                        {
                          OFFSET 0.014 -0.0193 0.0113
                        }
                      }
                    }
                  }
                }
                JOINT lCarpal2
                {
                  OFFSET 2.0956 0.66 -0.3894
                  CHANNELS 3 Zrotation Xrotation Yrotation
                  JOINT lRing1
                  {
                    OFFSET 5.0395 -0.09 2.4971
                    CHANNELS 3 Zrotation Xrotation Yrotation
                    JOINT lRing2
                    {
                      OFFSET 3.7921 -1.552 1.4806
                      CHANNELS 3 Zrotation Xrotation Yrotation
                      JOINT lRing2_End
                      {
                        OFFSET 1.4655 -1.808 0.9609
                        CHANNELS 3 Zrotation Xrotation Yrotation
                        End Site
                        {
                          OFFSET 0.0147 -0.0181 0.0096
                        }
                      }
                    }
                  }
                  JOINT lPinky1
                  {
                    OFFSET 4.9141 -1.269 0.3591
                    CHANNELS 3 Zrotation Xrotation Yrotation
                    JOINT lPinky2
                    {
                      OFFSET 3.1477 -1.685 0.8462
                      CHANNELS 3 Zrotation Xrotation Yrotation
                      JOINT lPinky2_End
                      {
                        OFFSET 0.8055 -1.585 0.7955
                        CHANNELS 3 Zrotation Xrotation Yrotation
                        End Site
                        {
                          OFFSET 0.0081 -0.0158 0.008
                        }
                      }
                    }
                  }
                }
              }
            }
          }
        }
        JOINT rCollar
        {
          OFFSET -1.7069 20.075 5.0056
          CHANNELS 3 Zrotation Xrotation Yrotation
          JOINT rShldr
          {
            OFFSET -13.6458 -0.047 -4.849
            CHANNELS 3 Zrotation Xrotation Yrotation
            JOINT rForeArm
            {
              OFFSET -28.3255 -0.9759 2.2888
              CHANNELS 3 Zrotation Xrotation Yrotation
              JOINT rHand
              {
                OFFSET -22.1583 -0.53 10.8316
                CHANNELS 3 Zrotation Xrotation Yrotation
                JOINT rThumb1
                {
                  OFFSET -0.786 0.112 2.5817
                  CHANNELS 3 Zrotation Xrotation Yrotation
                  JOINT rThumb2
                  {
                    OFFSET -0.3601 -0.878 4.2331
                    CHANNELS 3 Zrotation Xrotation Yrotation
                    JOINT rThumb2_End
                    {
                      OFFSET -1.8127 -1.216 2.2227
                      CHANNELS 3 Zrotation Xrotation Yrotation
                      End Site
                      {
                        OFFSET -0.0181 -0.0122 0.0222
                      }
                    }
                  }
                }
                JOINT rCarpal1
                {
                  OFFSET -0.9571 1.114 1.7695
                  CHANNELS 3 Zrotation Xrotation Yrotation
                  JOINT rIndex1
                  {
                    OFFSET -4.1246 0.487 4.1451
                    CHANNELS 3 Zrotation Xrotation Yrotation
                    JOINT rIndex2
                    {
                      OFFSET -3.4052 -1.454 2.7682
                      CHANNELS 3 Zrotation Xrotation Yrotation
                      JOINT rIndex2_End
                      {
                        OFFSET -1.4531 -1.795 1.2713
                        CHANNELS 3 Zrotation Xrotation Yrotation
                        End Site
                        {
                          OFFSET -0.0145 -0.018 0.0127
                        }
                      }
                    }
                  }
                  JOINT rMid1
                  {
                    OFFSET -5.6954 0.21 2.1184
                    CHANNELS 3 Zrotation Xrotation Yrotation
                    JOINT rMid2
                    {
                      OFFSET -3.9766 -1.54 2.3863
                      CHANNELS 3 Zrotation Xrotation Yrotation
                      JOINT rMid2_End
                      {
                        OFFSET -1.4042 -1.926 1.125
                        CHANNELS 3 Zrotation Xrotation Yrotation
                        End Site
                        {
                          OFFSET -0.014 -0.0193 0.0113
                        }
                      }
                    }
                  }
                }
                JOINT rCarpal2
                {
                  OFFSET -2.0956 0.66 -0.3894
                  CHANNELS 3 Zrotation Xrotation Yrotation
                  JOINT rRing1
                  {
                    OFFSET -5.0395 -0.09 2.4971
                    CHANNELS 3 Zrotation Xrotation Yrotation
                    JOINT rRing2
                    {
                      OFFSET -3.7921 -1.552 1.4806
                      CHANNELS 3 Zrotation Xrotation Yrotation
                      JOINT rRing2_End
                      {
                        OFFSET -1.4655 -1.808 0.9609
                        CHANNELS 3 Zrotation Xrotation Yrotation
                        End Site
                        {
                          OFFSET -0.0147 -0.0181 0.0096
                        }
                      }
                    }
                  }
                  JOINT rPinky1
                  {
                    OFFSET -4.9141 -1.269 0.3592
                    CHANNELS 3 Zrotation Xrotation Yrotation
                    JOINT rPinky2
                    {
                      OFFSET -3.1477 -1.685 0.8462
                      CHANNELS 3 Zrotation Xrotation Yrotation
                      JOINT rPinky2_End
                      {
                        OFFSET -0.8055 -1.585 0.7955
                        CHANNELS 3 Zrotation Xrotation Yrotation
                        End Site
                        {
                          OFFSET -0.0081 -0.0158 0.008
                        }
                      }
                    }
                  }
                }
              }
            }
          }
        }
      }
    }
  }
  JOINT lThigh
  {
    OFFSET 8.367 -8.2066 0.5982
    CHANNELS 3 Zrotation Xrotation Yrotation
    JOINT lShin
    {
      OFFSET 2.1923 -43.463 -0.4932
      CHANNELS 3 Zrotation Xrotation Yrotation
      JOINT lFoot
      {
        OFFSET 0.7333 -45.8593 -2.6451
        CHANNELS 3 Zrotation Xrotation Yrotation
        End Site
        {
          OFFSET 2.6618 -4.2699 12.3931
        }
      }
    }
  }
  JOINT rThigh
  {
    OFFSET -8.367 -8.2066 0.5982
    CHANNELS 3 Zrotation Xrotation Yrotation
    JOINT rShin
    {
      OFFSET -2.1923 -43.463 -0.4931
      CHANNELS 3 Zrotation Xrotation Yrotation
      JOINT rFoot
      {
        OFFSET -0.7333 -45.8593 -2.6451
        CHANNELS 3 Zrotation Xrotation Yrotation
        End Site
        {
          OFFSET -2.6618 -4.2699 12.3931
        }
      }
    }
  }
}
MOTION
Frames:	5
Frame Time:	0.0333333
0 91.7903 2.51682 0 0 -0 0 0 -0 0 0 -0 0 0 -0 0 0 -0 0 0 -0 0 0 -0 1.66051 0.0835086 5.75766 -0.0175111 0.895433 15.7816 7.95139e-016 -1.98785e-016 -0 5.46658e-016 -3.97569e-016 -0 5.96354e-016 0 -0 3.97569e-016 1.98785e-016 9.54166e-015 1.49089e-016 -3.97569e-016 -0 6.4605e-016 0 3.18055e-015 5.96354e-016 0 3.18055e-015 8.94531e-016 -1.98785e-016 6.36111e-015 6.4605e-016 0 3.18055e-015 5.96354e-016 0 3.18055e-015 8.94531e-016 -1.98785e-016 6.36111e-015 1.49089e-016 -3.97569e-016 -0 6.4605e-016 0 3.18055e-015 5.96354e-016 0 3.18055e-015 8.94531e-016 -1.98785e-016 6.36111e-015 6.4605e-016 0 3.18055e-015 5.96354e-016 0 3.18055e-015 8.94531e-016 -1.98785e-016 6.36111e-015 0 0 -0 -1.4496 0.0636048 -5.0245 -1.74811 1.20616 -16.8394 -1.19271e-015 1.98785e-016 -3.18055e-015 -3.97569e-016 1.98785e-016 -3.18055e-015 -2.98177e-016 1.98785e-016 -3.18055e-015 -2.98177e-016 3.97569e-016 -0 4.96962e-016 0 -6.36111e-015 -9.93923e-017 3.97569e-016 -0 -8.94531e-016 5.96354e-016 -0 -3.97569e-016 3.97569e-016 -0 -9.93923e-017 3.97569e-016 -0 -8.94531e-016 5.96354e-016 -0 -3.97569e-016 3.97569e-016 -0 4.96962e-016 0 -6.36111e-015 -9.93923e-017 3.97569e-016 -0 -8.94531e-016 5.96354e-016 -0 -3.97569e-016 3.97569e-016 -0 -9.93923e-017 3.97569e-016 -0 -8.94531e-016 5.96354e-016 -0 -3.97569e-016 3.97569e-016 -0 -4.66111 -0.998717 0.12318 0.00986924 1.54847 0.176523 4.65186 -0.572283 -0.254274 4.66111 -0.998765 -0.123176 -0.00986867 1.54869 -0.176537 -4.65186 -0.572453 0.25427 
-0.732261 26.1831 -8.39824 -0 -66.6681 -0 -0.0466682 6.34483 -0.0808736 -0.0850506 12.6897 -0.157978 -0.0850506 12.6897 -0.157978 3.82679e-006 13.3326 -7.80892e-007 2.87399e-009 6.711 -1.37267e-008 0.459893 0.322345 6.37558 -55.5635 1.21156 28.1745 22.3699 10.9041 -42.4806 1.87241 18.1019 -1.51441 1.59028e-015 7.95139e-016 -3.18055e-015 -6.61973e-007 1.04247e-006 7.04985e-006 -2.49348e-007 7.87508e-007 2.14226e-007 1.59028e-015 1.59028e-015 -3.18055e-015 5.56597e-015 4.77083e-015 6.36111e-015 -6.61973e-007 1.04247e-006 7.04985e-006 -2.49348e-007 7.87508e-007 2.14226e-007 5.56597e-015 4.77083e-015 6.36111e-015 -6.61973e-007 1.04247e-006 7.04985e-006 -2.49348e-007 7.87508e-007 2.14226e-007 1.59028e-015 1.59028e-015 -3.18055e-015 5.56597e-015 4.77083e-015 6.36111e-015 -6.61973e-007 1.04247e-006 7.04985e-006 -2.49348e-007 7.87508e-007 2.14226e-007 5.56597e-015 4.77083e-015 6.36111e-015 -6.61973e-007 1.04247e-006 7.04985e-006 -2.49348e-007 7.87508e-007 2.14226e-007 -0.462479 0.322545 -6.37817 55.7379 1.11468 -27.4468 -23.5543 10.0097 41.6329 -2.06799 18.0394 2.05219 4.79416e-007 1.58513e-006 -4.1114e-007 4.79416e-007 1.58513e-006 -4.1114e-007 -2.93055e-006 1.7514e-006 -7.5762e-008 3.97569e-016 3.18055e-015 3.18055e-015 4.79416e-007 1.58513e-006 -4.1114e-007 4.79416e-007 1.58513e-006 -4.1114e-007 -2.93055e-006 1.7514e-006 -7.5762e-008 4.79416e-007 1.58513e-006 -4.1114e-007 4.79416e-007 1.58513e-006 -4.1114e-007 -2.93055e-006 1.7514e-006 -7.5762e-008 3.97569e-016 3.18055e-015 3.18055e-015 4.79416e-007 1.58513e-006 -4.1114e-007 4.79416e-007 1.58513e-006 -4.1114e-007 -2.93055e-006 1.7514e-006 -7.5762e-008 4.79416e-007 1.58513e-006 -4.1114e-007 4.79416e-007 1.58513e-006 -4.1114e-007 -2.93055e-006 1.7514e-006 -7.5762e-008 9.57307 -3.6644 0.96502 -1.44899 11.9369 1.40702 9.4303 8.69886 0.061827 -21.902 -40.0268 -31.2191 157.243 86.9346 -162.104 -9.46899 19.8344 -1.25897 
-1.27932 -6.08331 -9.38213 -180 -83.3313 -180 -0.0671156 9.17618 -0.115845 -0.117459 18.3525 -0.22506 -0.117459 18.3525 -0.22506 2.27399e-006 19.3319 -1.42322e-006 3.86589e-008 9.50626 -1.50915e-007 0.643515 0.464221 9.24476 -81.5139 1.62558 38.2681 35.7928 0.80213 -65.4876 3.13779 26.1632 -3.03538 -0 -4.37326e-015 -0 1.76556e-031 -3.18055e-015 3.18055e-015 -3.18055e-015 -7.95139e-016 -0 7.95139e-016 -4.77083e-015 -0 3.97569e-015 -1.98785e-015 1.27222e-014 -7.95139e-016 -7.15625e-015 -0 -7.95139e-016 -3.18055e-015 9.54166e-015 3.97569e-015 -1.98785e-015 1.27222e-014 -7.95139e-016 -7.15625e-015 -0 -7.95139e-016 -3.18055e-015 9.54166e-015 7.95139e-016 -4.77083e-015 -0 3.97569e-015 -1.98785e-015 1.27222e-014 -7.95139e-016 -7.15625e-015 -0 -7.95139e-016 -3.18055e-015 9.54166e-015 3.97569e-015 -1.98785e-015 1.27222e-014 -7.95139e-016 -7.15625e-015 -0 -7.95139e-016 -3.18055e-015 9.54166e-015 -0.64724 0.464514 -9.2485 81.6628 1.49803 -37.5421 -36.537 -0.273594 64.548 -3.48447 26.0462 3.85348 -8.82781e-032 1.59028e-015 3.18055e-015 1.59028e-015 0 -0 3.18055e-015 -5.56597e-015 -6.36111e-015 -8.82781e-032 1.59028e-015 3.18055e-015 -1.59028e-015 3.18055e-015 9.54166e-015 1.59028e-015 -4.77083e-015 -6.36111e-015 -1.59028e-015 7.95139e-016 -0 -1.59028e-015 3.18055e-015 9.54166e-015 1.59028e-015 -4.77083e-015 -6.36111e-015 -1.59028e-015 7.95139e-016 -0 -8.82781e-032 1.59028e-015 3.18055e-015 -1.59028e-015 3.18055e-015 9.54166e-015 1.59028e-015 -4.77083e-015 -6.36111e-015 -1.59028e-015 7.95139e-016 -0 -1.59028e-015 3.18055e-015 9.54166e-015 1.59028e-015 -4.77083e-015 -6.36111e-015 -1.59028e-015 7.95139e-016 -0 16.3682 -5.33364 1.35063 -2.17623 18.1525 2.09544 11.1363 11.7933 0.363333 -55.6678 -51.2474 -65.8239 177.497 45.117 173.245 -11.0327 30.7078 -3.87188 
-1.16821 1.04165 -9.40472 -180 -89.9981 -180 -0.0617667 8.49446 -0.10659 -0.10918 16.989 -0.20728 -0.10918 16.989 -0.20728 -2.2692e-007 17.9984 -6.01042e-007 7.93235e-008 8.38567 -1.44613e-007 0.603948 0.432969 8.60715 -75.7377 1.54103 36.0247 32.9281 3.93657 -60.5893 2.81921 24.3792 -2.64242 7.95139e-016 1.13307e-014 -9.54166e-015 -2.38542e-015 9.74045e-015 -0 -3.18055e-015 2.78299e-015 -9.54166e-015 2.38542e-015 9.54166e-015 -6.36111e-015 -3.18055e-015 4.96962e-015 1.59028e-014 1.72142e-030 7.7526e-015 -1.27222e-014 -1.98785e-015 2.98177e-015 -6.36111e-015 -3.18055e-015 4.96962e-015 1.59028e-014 1.72142e-030 7.7526e-015 -1.27222e-014 -1.98785e-015 2.98177e-015 -6.36111e-015 2.38542e-015 9.54166e-015 -6.36111e-015 -3.18055e-015 4.96962e-015 1.59028e-014 1.72142e-030 7.7526e-015 -1.27222e-014 -1.98785e-015 2.98177e-015 -6.36111e-015 -3.18055e-015 4.96962e-015 1.59028e-014 1.72142e-030 7.7526e-015 -1.27222e-014 -1.98785e-015 2.98177e-015 -6.36111e-015 -0.60742 0.433254 -8.61064 75.8927 1.42 -35.2984 -33.7661 2.86993 59.6864 -3.12827 24.2761 3.39521 2.24042e-006 6.82241e-007 -5.84686e-007 1.55818e-006 2.92266e-006 -6.52871e-007 1.55818e-006 2.92266e-006 -6.52871e-007 -1.59028e-015 3.97569e-016 6.36111e-015 2.24042e-006 6.82241e-007 -5.84686e-007 1.55818e-006 2.92266e-006 -6.52871e-007 1.55818e-006 2.92266e-006 -6.52871e-007 2.24042e-006 6.82241e-007 -5.84686e-007 1.55818e-006 2.92266e-006 -6.52871e-007 1.55818e-006 2.92266e-006 -6.52871e-007 -1.59028e-015 3.97569e-016 6.36111e-015 2.24042e-006 6.82241e-007 -5.84686e-007 1.55818e-006 2.92266e-006 -6.52871e-007 1.55818e-006 2.92266e-006 -6.52871e-007 2.24042e-006 6.82241e-007 -5.84686e-007 1.55818e-006 2.92266e-006 -6.52871e-007 1.55818e-006 2.92266e-006 -6.52871e-007 14.8395 -4.93123 1.26401 -2.0068 16.6247 1.92894 10.7823 11.2201 0.277999 -45.9369 -49.6514 -55.3671 176.943 54.4304 175.299 -10.7015 27.7903 -2.93907 
-1.16821 1.04165 -9.40472 -180 -89.9981 -180 -0.0611351 8.45145 -0.105379 -0.10815 16.903 -0.204929 -0.10815 16.903 -0.20493 2.67838e-007 17.9983 -3.79938e-007 -6.5803e-008 7.9766 1.31411e-008 0.603948 0.432973 8.60715 -75.7377 1.54102 36.0247 32.7672 4.01896 -60.3786 2.8192 24.3792 -2.64242 -2.25063e-006 6.47765e-007 5.80104e-007 -1.59028e-015 1.07344e-014 -6.36111e-015 -1.53666e-007 3.69982e-006 4.39976e-007 -3.97569e-016 2.5842e-015 -0 -2.25063e-006 6.47765e-007 5.80104e-007 -7.95139e-016 1.39149e-015 -3.18055e-015 -1.53666e-007 3.69982e-006 4.39976e-007 -2.25063e-006 6.47765e-007 5.80104e-007 -7.95139e-016 1.39149e-015 -3.18055e-015 -1.53666e-007 3.69982e-006 4.39976e-007 -3.97569e-016 2.5842e-015 -0 -2.25063e-006 6.47765e-007 5.80104e-007 -7.95139e-016 1.39149e-015 -3.18055e-015 -1.53666e-007 3.69982e-006 4.39976e-007 -2.25063e-006 6.47765e-007 5.80104e-007 -7.95139e-016 1.39149e-015 -3.18055e-015 -1.53666e-007 3.69982e-006 4.39976e-007 -0.607421 0.433254 -8.61064 75.8927 1.42001 -35.2984 -33.6097 2.94255 59.4951 -3.12826 24.2761 3.39524 -7.78501e-007 -1.4608e-006 3.28416e-007 -4.22114e-006 -5.60627e-007 -2.07213e-006 -2.2393e-006 -6.82295e-007 5.88941e-007 -1.59028e-015 -1.59028e-015 -3.18055e-015 -7.78501e-007 -1.4608e-006 3.28416e-007 -4.22114e-006 -5.60627e-007 -2.07213e-006 -2.2393e-006 -6.82295e-007 5.88941e-007 -7.78501e-007 -1.4608e-006 3.28416e-007 -4.22114e-006 -5.60627e-007 -2.07213e-006 -2.2393e-006 -6.82295e-007 5.88941e-007 -1.59028e-015 -1.59028e-015 -3.18055e-015 -7.78501e-007 -1.4608e-006 3.28416e-007 -4.22114e-006 -5.60627e-007 -2.07213e-006 -2.2393e-006 -6.82295e-007 5.88941e-007 -7.78501e-007 -1.4608e-006 3.28416e-007 -4.22114e-006 -5.60627e-007 -2.07213e-006 -2.2393e-006 -6.82295e-007 5.88941e-007 14.8395 -4.93123 1.26401 -2.0068 16.6247 1.92894 10.7823 11.2201 0.277999 -45.9369 -49.6514 -55.3671 176.943 54.4304 175.299 -10.7015 27.7903 -2.93907 
